<svg width="666" height="1117" viewBox="0 0 666 1117" fill="none" xmlns="http://www.w3.org/2000/svg">
<path d="M0 -3H681C686.523 -3 691 1.47715 691 7V1124C691 1129.52 686.523 1134 681 1134H0V-3Z" fill="#930028"/>
<mask id="mask0_233_5664" style="mask-type:alpha" maskUnits="userSpaceOnUse" x="0" y="-3" width="666" height="1120">
<path d="M0 -3H656C661.523 -3 666 1.47715 666 7V1107C666 1112.52 661.523 1117 656 1117H0V-3Z" fill="#930028"/>
</mask>
<g mask="url(#mask0_233_5664)">
<path d="M998 1117H-1242.33C-1242.33 1117 -1244.27 1098.5 -1244.84 1068.63C-1245.17 1051.23 -1245.05 1029.96 -1243.8 1006.24C-1243.69 1004.31 -1243.58 1002.34 -1243.47 1000.37C-1242.82 989.489 -1241.93 978.131 -1240.74 966.423C-1240.64 965.387 -1240.53 964.352 -1240.41 963.306C-1239.13 951.064 -1237.51 938.347 -1235.5 925.284C-1233.87 914.656 -1231.98 903.797 -1229.79 892.769C-1229.63 891.993 -1229.47 891.216 -1229.31 890.439C-1228.18 884.822 -1226.95 879.17 -1225.66 873.472C-1225.15 871.24 -1224.63 868.998 -1224.1 866.758C-1223.05 862.372 -1221.96 857.969 -1220.81 853.558C-1218.02 842.762 -1214.91 831.877 -1211.47 820.964C-1211.12 819.858 -1210.76 818.731 -1210.41 817.607C-1208.84 812.739 -1207.21 807.864 -1205.5 802.988C-1202.9 795.559 -1200.13 788.129 -1197.19 780.717C-1195.36 776.064 -1193.43 771.421 -1191.45 766.786C-1129.63 622.22 -998.744 487.726 -725.439 490.432C-138.223 496.254 -183.292 177.716 227.757 157.328C395.162 149.023 497.232 299.331 467.124 514.069C416.205 877.33 990.543 613.987 998 1117Z" fill="#81062D"/>
<g style="mix-blend-mode:saturation">
<path d="M281.02 712.309C281.02 712.309 267.206 687.253 279.875 676.188C292.545 665.124 314.852 671.727 318.956 676.188C323.06 680.65 328.526 693.338 317.193 711.381L281.02 712.309Z" fill="#2C3A64"/>
<path d="M253.495 1112.58C253.495 1112.58 253.495 1105.63 254.485 1103.32C255.475 1101.01 259.106 1091.61 259.106 1091.61H273.297C273.297 1091.61 275.938 1100.19 276.103 1102.99C276.267 1105.8 276.103 1112.58 276.103 1112.58H253.495Z" fill="#233862"/>
<path d="M343.603 1112.58C343.603 1112.58 343.603 1105.63 342.612 1103.32C341.622 1101.01 337.992 1091.61 337.992 1091.61H323.8C323.8 1091.61 321.16 1100.19 320.995 1102.99C320.83 1105.8 320.995 1112.58 320.995 1112.58H343.603Z" fill="#233862"/>
<path d="M286.747 722.619C286.747 722.619 286.247 738.09 284.266 745.021L268.594 755.953L327.589 764.781L313.519 745.342C313.519 745.342 309.272 724.599 311.499 716.925C313.728 709.253 286.747 722.619 286.747 722.619Z" fill="#B56F40"/>
<path d="M286.661 724.755C286.661 724.751 291.326 735.985 300.113 735.738C308.9 735.491 310.901 725.554 310.901 725.554L286.661 724.755Z" fill="#99592E"/>
<path d="M311.252 688.955H286.961C283.693 688.955 281.02 692.092 281.02 695.926V712.309C281.02 722.808 292.739 731.286 299.107 731.399C306.409 731.527 317.193 722.391 317.193 711.382V695.926C317.193 692.092 314.52 688.955 311.252 688.955Z" fill="#B56F40"/>
<path d="M255.273 871.97C255.273 871.97 257.756 947.792 254.044 991.053C250.33 1034.32 254.07 1094.52 254.07 1094.52C254.07 1094.52 265.944 1101.07 278.817 1094.52C278.817 1094.52 292.932 1010.94 292.843 991.053C292.748 969.87 308.208 875.275 308.208 875.275L255.273 871.97Z" fill="#EE9849"/>
<path d="M343.09 1094.52C343.09 1094.52 331.217 1101.07 318.346 1094.52C318.346 1094.52 304.232 1010.94 304.322 991.051C304.361 982.105 301.628 960.06 298.455 937.584C294.113 906.836 288.955 875.275 288.955 875.275L343.941 871.84C343.941 871.84 339.406 947.793 343.119 991.051C346.832 1034.31 343.09 1094.52 343.09 1094.52Z" fill="#EE9849"/>
<path d="M333.574 749.01L333.576 749.044C326.438 747.247 319.725 746.064 313.519 745.343C308.044 752.615 304.113 754.303 299.108 756.283C291.053 755.169 284.266 745.248 284.266 745.021C275.49 745.919 269.573 747.529 267.166 748.277C266.689 748.334 240.951 751.734 204.521 825.889C204.521 825.889 206.481 832.716 216.036 844.622C222.834 853.088 233.483 864.127 249.997 877.103C249.997 877.103 251.556 873.771 252.978 868.379C252.978 868.379 243.161 849.276 237.25 836.339C234.379 830.042 232.428 825.21 232.987 824.745C234.051 823.861 245.928 813.55 254.696 805.931C254.626 807.835 254.608 809.567 254.652 811.071C255.127 827.636 255.796 843.736 253.661 861.567C250.854 884.999 255.607 884.583 255.607 884.583C255.607 884.583 262.003 885.835 270.925 887.019C278.994 888.098 289.128 889.122 298.455 889.122C319.842 889.122 343.283 884.583 343.283 884.583C350.031 884.667 341.391 842.596 340.129 817.284C339.837 811.405 339.565 806.041 339.311 801.136C347.373 808.138 365.224 823.649 366.541 824.744C367.101 825.209 365.15 830.041 362.279 836.338C356.368 849.274 346.551 868.379 346.551 868.379C347.971 873.77 349.532 877.103 349.532 877.103C366.046 864.127 376.695 853.087 383.492 844.622C393.047 832.715 395.008 825.888 395.008 825.888C358.234 751.035 333.574 749.01 333.574 749.01Z" fill="#74ACBE"/>
<path d="M270.925 887.019C262.004 885.836 255.607 884.584 255.607 884.584C255.607 884.584 250.855 885 253.661 861.568C255.795 843.736 255.127 827.637 254.652 811.072C254.597 809.23 254.637 807.052 254.75 804.626C256.117 806.814 271.345 831.409 275.444 849.687C278.43 863.018 273.929 878.722 270.925 887.019Z" fill="#578E9B"/>
<path d="M304.322 991.052C304.361 982.106 301.628 960.06 298.455 937.584C301.747 924.158 309.767 911.237 309.767 911.237C319.916 939.704 304.322 991.052 304.322 991.052Z" fill="#E58638"/>
<path d="M251.019 869.323C251.019 869.323 259.93 861.072 263.561 865.692C267.191 870.313 267.852 877.573 265.046 877.079C262.24 876.583 256.465 873.944 255.64 875.263C254.815 876.583 251.118 879.107 249.996 877.103C248.874 875.098 251.019 869.323 251.019 869.323Z" fill="#B56F40"/>
<path d="M252.978 868.381C251.557 873.771 249.998 877.104 249.998 877.104C233.483 864.127 222.834 853.088 216.037 844.623C221.161 844.241 228.641 842.41 237.251 836.34C243.161 849.276 252.978 868.381 252.978 868.381Z" fill="#B56F40"/>
<path d="M348.508 869.323C348.508 869.323 339.596 861.072 335.965 865.692C332.335 870.313 331.675 877.573 334.48 877.079C337.286 876.583 343.061 873.944 343.886 875.263C344.712 876.583 348.408 879.107 349.531 877.103C350.652 875.098 348.508 869.323 348.508 869.323Z" fill="#B56F40"/>
<path d="M346.548 868.381C347.97 873.771 349.529 877.104 349.529 877.104C366.044 864.127 376.692 853.088 383.49 844.623C378.366 844.241 370.886 842.41 362.276 836.34C356.365 849.276 346.548 868.381 346.548 868.381Z" fill="#B56F40"/>
<path d="M366.541 824.745C365.218 823.647 347.243 808.027 339.223 801.062C339.223 801.062 347.229 795.061 352.179 803.81C357.129 812.557 366.541 824.745 366.541 824.745Z" fill="#578E9B"/>
<path d="M395.007 825.889C395.007 825.889 393.046 832.716 383.491 844.622C372.432 844.469 395.007 825.889 395.007 825.889Z" fill="#578E9B"/>
<path d="M281.02 702.569C281.02 702.569 285.439 689.079 299.919 691.183C314.4 693.286 315.653 696.381 317.193 699.97C318.732 703.559 321.702 686.85 321.702 686.85L304.622 681.776C304.622 681.776 283.954 684.127 282.469 687.593C280.983 691.058 280.983 691.058 280.983 691.058L281.02 702.569Z" fill="#2C3A64"/>
<path d="M297.922 676.468C297.922 676.468 282.619 662.562 289.184 659.591C295.75 656.62 297.922 676.468 297.922 676.468Z" fill="#2C3A64"/>
<path d="M297.305 676.836C297.305 676.836 277.955 669.545 282.965 664.364C287.973 659.183 297.305 676.836 297.305 676.836Z" fill="#2C3A64"/>
<path d="M298.572 677.239C298.572 677.239 295.406 659.302 303.053 659.433C310.701 659.564 298.572 677.239 298.572 677.239Z" fill="#2C3A64"/>
<path d="M299.645 676.068C299.645 676.068 307.934 656.773 315.649 658.579C323.364 660.385 299.645 676.068 299.645 676.068Z" fill="#2C3A64"/>
<path d="M299.22 677.239C299.22 677.239 312.411 660.9 319.353 664.723C326.293 668.546 299.22 677.239 299.22 677.239Z" fill="#2C3A64"/>
<path d="M156.979 1112.58C156.979 1112.58 156.979 1105.63 157.969 1103.32C158.959 1101.01 162.59 1091.61 162.59 1091.61H176.781C176.781 1091.61 179.422 1100.19 179.587 1102.99C179.752 1105.8 179.587 1112.58 179.587 1112.58H156.979Z" fill="#233862"/>
<path d="M247.087 1112.58C247.087 1112.58 247.087 1105.63 246.096 1103.32C245.106 1101.01 241.476 1091.61 241.476 1091.61H227.285C227.285 1091.61 224.644 1100.19 224.478 1102.99C224.314 1105.8 224.478 1112.58 224.478 1112.58H247.087Z" fill="#233862"/>
<path d="M190.231 722.619C190.231 722.619 189.731 738.09 187.75 745.021L172.078 755.953L231.073 764.781L217.003 745.342C217.003 745.342 212.757 724.599 214.984 716.925C217.21 709.253 190.231 722.619 190.231 722.619Z" fill="#FFB27D"/>
<path d="M190.145 724.756C190.145 724.751 194.81 735.985 203.597 735.738C212.384 735.491 214.384 725.554 214.384 725.554L190.145 724.756Z" fill="#ED985F"/>
<path d="M184.899 715.662C184.899 715.662 182.062 701.497 180.081 697.206C178.101 692.915 176.451 673.773 198.398 672.782C198.398 672.782 206.815 673.773 211.435 670.967C211.435 670.967 211.435 673.773 210.28 674.763C210.28 674.763 217.872 672.947 223.812 679.548C229.753 686.15 219.853 709.252 220.348 714.698L184.899 715.662Z" fill="#B64C41"/>
<path d="M214.736 688.955H190.444C187.177 688.955 184.504 692.092 184.504 695.925V712.309C184.504 722.808 196.223 731.286 202.59 731.398C209.892 731.527 220.677 722.391 220.677 711.382V695.925C220.676 692.092 218.003 688.955 214.736 688.955Z" fill="#FFB27D"/>
<path d="M184.503 704.673C184.503 704.673 184.537 694.828 192.334 693.315C200.131 691.801 217.583 698.113 220.057 690.934C222.533 683.756 186.326 683.88 184.503 688.459C182.68 693.038 184.503 704.673 184.503 704.673Z" fill="#B64C41"/>
<path d="M158.757 871.97C158.757 871.97 161.24 947.792 157.528 991.053C153.814 1034.32 157.555 1094.52 157.555 1094.52C157.555 1094.52 169.428 1101.07 182.301 1094.52C182.301 1094.52 196.415 1010.94 196.327 991.053C196.232 969.87 211.691 875.275 211.691 875.275L158.757 871.97Z" fill="#2B478B"/>
<path d="M246.573 1094.52C246.573 1094.52 234.702 1101.07 221.83 1094.52C221.83 1094.52 207.716 1010.94 207.805 991.051C207.845 982.105 205.112 960.06 201.939 937.584C197.597 906.836 192.438 875.275 192.438 875.275L247.425 871.84C247.425 871.84 242.89 947.793 246.603 991.051C250.316 1034.31 246.573 1094.52 246.573 1094.52Z" fill="#2B478B"/>
<path d="M174.408 887.019C165.487 885.836 159.091 884.584 159.091 884.584C159.091 884.584 154.339 885 157.145 861.568C159.279 843.737 158.611 827.637 158.135 811.072C158.081 809.23 158.121 807.052 158.234 804.626C159.601 806.814 174.829 831.409 178.928 849.687C181.913 863.018 177.413 878.722 174.408 887.019Z" fill="#27437C"/>
<path d="M237.058 749.01L237.06 749.044C229.921 747.247 223.209 746.064 217.003 745.343C211.527 752.615 207.597 754.303 202.592 756.283C194.537 755.169 187.749 745.248 187.749 745.021C178.974 745.919 173.057 747.529 170.65 748.277C170.171 748.334 144.434 751.736 108.005 825.889C108.005 825.889 109.965 832.716 119.52 844.622C126.317 853.088 136.966 864.127 153.481 877.103C153.481 877.103 155.04 873.771 156.462 868.379C156.462 868.379 146.644 849.276 140.734 836.339C137.862 830.042 135.911 825.21 136.471 824.745C137.535 823.861 149.411 813.55 158.18 805.931C158.11 807.835 158.091 809.567 158.135 811.071C158.611 827.636 159.279 843.736 157.145 861.567C154.338 884.999 159.091 884.583 159.091 884.583C159.091 884.583 165.487 885.835 174.408 887.019C182.478 888.098 192.611 889.122 201.939 889.122C223.326 889.122 246.767 884.583 246.767 884.583C253.515 884.667 244.876 842.596 243.613 817.284C243.321 811.405 243.048 806.041 242.794 801.136C250.857 808.138 268.708 823.649 270.025 824.744C270.584 825.209 268.634 830.041 265.763 836.338C259.852 849.274 250.035 868.379 250.035 868.379C251.456 873.77 253.015 877.103 253.015 877.103C269.531 864.127 280.179 853.087 286.976 844.622C296.531 832.715 298.492 825.888 298.492 825.888C261.718 751.035 237.058 749.01 237.058 749.01Z" fill="#2F5196"/>
<path d="M207.805 991.052C207.845 982.106 205.112 960.06 201.939 937.584C205.231 924.158 213.251 911.237 213.251 911.237C223.399 939.704 207.805 991.052 207.805 991.052Z" fill="#233862"/>
<path d="M154.503 869.323C154.503 869.323 163.414 861.072 167.045 865.692C170.675 870.313 171.336 877.573 168.53 877.079C165.724 876.583 159.949 873.944 159.123 875.263C158.299 876.583 154.602 879.107 153.48 877.103C152.358 875.098 154.503 869.323 154.503 869.323Z" fill="#FFB27D"/>
<path d="M156.462 868.38C155.041 873.771 153.481 877.103 153.481 877.103C136.966 864.127 126.317 853.088 119.52 844.622C124.644 844.241 132.125 842.409 140.734 836.339C146.645 849.276 156.462 868.38 156.462 868.38Z" fill="#FFB27D"/>
<path d="M251.991 869.323C251.991 869.323 243.08 861.072 239.449 865.692C235.819 870.313 235.159 877.573 237.964 877.079C240.77 876.583 246.545 873.944 247.37 875.263C248.195 876.583 251.891 879.107 253.014 877.103C254.136 875.098 251.991 869.323 251.991 869.323Z" fill="#FFB27D"/>
<path d="M250.032 868.38C251.453 873.771 253.013 877.103 253.013 877.103C269.528 864.127 280.176 853.088 286.973 844.622C281.85 844.241 274.37 842.409 265.76 836.339C259.849 849.276 250.032 868.38 250.032 868.38Z" fill="#FFB27D"/>
<path d="M270.025 824.745C268.703 823.647 250.727 808.027 242.707 801.062C242.707 801.062 250.712 795.061 255.662 803.809C260.613 812.556 270.025 824.745 270.025 824.745Z" fill="#2B478B"/>
<path d="M298.491 825.889C298.491 825.889 296.53 832.716 286.975 844.622C275.916 844.469 298.491 825.889 298.491 825.889Z" fill="#2B478B"/>
<path d="M188.571 741.248C188.571 741.248 185.952 742.34 185.209 745.31C185.209 745.31 195.717 756.119 202.592 756.283L188.571 741.248Z" fill="#EE9849"/>
<path d="M202.592 756.283L216.154 740.702C216.154 740.702 218.954 742.545 218.914 745.577C218.914 745.577 208.424 756.696 202.592 756.283Z" fill="#EE9849"/>
<path d="M200.146 755.136C200.146 755.136 189.795 844.495 193.4 855.388C195.255 860.995 197.739 865.845 199.713 869.231C201.133 871.667 204.656 871.661 206.064 869.218C208.812 864.446 212.404 857.54 212.404 854.035C212.404 848.358 204.55 755.06 204.55 755.06L200.146 755.136Z" fill="#EE9849"/>
<path d="M197.437 750.756C197.437 750.756 203.694 750.129 207.503 750.515C208.257 750.592 208.678 751.418 208.309 752.083C207.242 754.004 205.063 757.335 202.786 757.335C199.587 757.335 194.6 750.977 197.437 750.756Z" fill="#E58638"/>
<path d="M591.991 710.917C591.991 710.917 586.18 694.4 585.869 690.11C585.558 685.819 587.489 673.442 601.788 672.122C616.087 670.801 621.409 669.276 621.409 669.276L618.686 672.493C618.686 672.493 622.662 671.255 626.801 673.978C630.939 676.701 633.043 684.745 632.424 691.676C631.805 698.608 626.391 706.238 626.315 709.104C626.238 711.971 591.991 710.917 591.991 710.917Z" fill="#233862"/>
<path d="M552.998 882.289C552.998 882.289 552.671 886.063 548.732 894.267C548.732 894.267 546.928 899.846 558.742 908.215C570.556 916.583 559.07 882.289 559.07 882.289H552.998Z" fill="#D9935C"/>
<path d="M594.69 736.521C594.69 736.521 588.065 771.997 580.834 809.055C572.981 849.335 564.416 891.487 562.877 891.999C559.923 892.984 555.405 889.125 553.436 884.203C551.854 880.245 549.14 847.702 550.986 826.672C551.436 821.539 551.958 817.325 552.538 814.717C555.492 801.425 556.388 754.407 565.249 747.023C574.109 739.638 594.69 736.521 594.69 736.521Z" fill="#D9935C"/>
<path d="M594.69 736.521C594.69 736.521 590.87 756.966 585.869 783.027C584.284 791.298 582.577 800.129 580.834 809.055C573.752 822.937 567.675 832.375 565.797 830.599C561.967 826.984 555.243 826.536 550.986 826.671C551.436 821.539 551.958 817.325 552.538 814.716C552.772 813.666 552.992 812.406 553.205 810.971C555.683 794.248 557.088 753.822 565.249 747.023C574.11 739.638 594.69 736.521 594.69 736.521Z" fill="#739AF0"/>
<path d="M585.869 783.027C584.284 791.298 582.577 800.129 580.834 809.055C573.752 822.937 567.675 832.376 565.797 830.6C561.967 826.984 555.243 826.537 550.986 826.671C551.436 821.539 551.958 817.325 552.538 814.716C552.772 813.666 552.992 812.406 553.205 810.971L574.439 759.714L585.869 783.027Z" fill="#4A75CB"/>
<path d="M624.08 735.998C624.236 728.843 624.118 720.3 623.151 713.083L594.593 717.75C594.593 717.75 594.593 726.464 594.718 736.135C594.701 736.137 594.69 736.14 594.69 736.14C594.69 736.14 593.911 745.11 604.96 746.423C616.009 747.734 624.378 742.921 624.08 735.998Z" fill="#D9935C"/>
<path d="M594.513 719.512C594.513 719.512 601.241 733.296 608.953 733.296C616.666 733.296 623.886 720.333 623.886 720.333L594.513 719.512Z" fill="#CB7D45"/>
<path d="M613.547 1114.58C613.547 1114.58 614.587 1106.49 616.993 1101.68C619.4 1096.86 634.715 1099.93 634.715 1099.93C634.715 1099.93 637.778 1102.55 638.434 1114.8L613.547 1114.58Z" fill="#233862"/>
<path d="M561.368 1114.48C564.967 1112.28 562.92 1095.89 562.92 1095.89C562.92 1095.89 546.151 1082.48 543.845 1092.75C541.54 1103.02 527.915 1107.63 520.16 1108.89C514.807 1109.76 513.149 1112.72 512.635 1114.48H561.368Z" fill="#233862"/>
<path d="M595.44 720.533C598.216 722.717 606.352 724.885 608.704 725.139C608.704 725.139 620.769 722.448 622.962 721.125C626.359 719.066 626.14 714.898 626.315 709.104C626.524 702.246 627.214 696.86 626.449 692.907C625.539 688.177 622.54 685.487 614.145 684.756C598.733 683.418 592.313 687.277 592.044 692.444C591.975 693.832 591.91 695.154 591.866 696.408C591.248 712.522 592.521 718.236 595.44 720.533Z" fill="#D9935C"/>
<path d="M596.102 992.711C595.419 996.472 594.985 999.557 594.871 1001.77C593.313 1032.17 569.276 1101.7 564.977 1103.32C558.325 1105.83 547.849 1100.49 542.369 1098.75C540.098 1098.02 538.565 1095.73 539.071 1093.41C550.973 1038.69 555.348 959.89 556.94 913.24C557.744 889.742 561.777 873.51 561.777 873.51C561.777 873.51 620.4 857.869 620.748 877.655C621.056 895.163 601.33 963.828 596.102 992.711Z" fill="#2B478B"/>
<path d="M596.102 992.711L556.94 913.24C557.744 889.742 561.777 873.51 561.777 873.51C561.777 873.51 620.4 857.869 620.748 877.655C621.056 895.163 601.33 963.828 596.102 992.711Z" fill="#233862"/>
<path d="M583.058 877.724L614.048 1102.33C614.048 1102.33 627.659 1105.61 638.243 1102.99C638.243 1102.99 647.316 983.532 646.56 954.652C645.804 925.772 653.071 877.375 644.901 872.038C636.731 866.7 583.058 877.724 583.058 877.724Z" fill="#2B478B"/>
<path d="M649.355 872.036C649.457 874.639 647.396 876.808 644.796 876.847L595.96 877.592L560.09 878.14C558.411 878.169 563.72 864.73 563.828 777.106C563.855 757.553 594.126 736.514 594.685 736.514L594.691 736.521C594.691 739.336 599.128 744.535 605.964 744.981C614.076 745.513 624.031 741.476 624.031 736.803C624.031 736.75 624.972 737.772 626.488 739.976C630.538 745.877 638.696 760.264 643.904 785.312C648.017 805.091 646.435 831.536 649.395 865.656C649.611 868.121 649.293 870.31 649.355 872.036Z" fill="#FFA412"/>
<path d="M647.554 877.12C647.554 877.12 641.063 880.027 628.92 882.545C619.892 884.418 607.742 886.08 592.817 886.171C569.08 886.322 560.091 878.14 560.091 878.14C558.411 878.17 563.721 864.731 563.829 777.107C563.856 757.554 594.127 736.514 594.685 736.514L594.692 736.521C594.692 736.521 593.914 762.559 601.79 770.215C601.79 770.215 612.836 761.683 627.168 737.397C631.217 743.298 638.697 760.265 643.905 785.311C644.962 790.408 645.644 795.944 646.124 801.94C647.505 819.222 647.197 840.324 649.396 865.657C649.611 868.121 649.294 870.31 649.356 872.037C649.457 874.639 650.155 877.08 647.554 877.12Z" fill="#739AF0"/>
<path d="M647.554 877.12C647.554 877.12 641.063 880.026 628.92 882.545C625.1 876.719 620.285 866.205 619.619 849.635C618.49 821.615 645.108 785.531 645.108 785.531L646.123 801.94C647.504 819.222 647.196 840.324 649.395 865.657C649.611 868.121 649.293 870.31 649.356 872.037C649.457 874.639 650.155 877.08 647.554 877.12Z" fill="#4A75CB"/>
<path d="M624.472 782.229L579.103 808.424L615.035 870.657L660.404 844.463L624.472 782.229Z" fill="#2B478B"/>
<path d="M667.533 840.445C667.533 840.445 658.243 841.352 642.358 839.721C630.898 838.542 616.006 836.042 598.698 830.929L603.758 822.288C603.758 822.288 624.446 821.375 639.598 819.157C643.373 818.605 646.803 817.972 649.483 817.254C652.778 816.371 636.425 774.925 628.175 750.552C626.205 744.736 624.698 739.892 624.03 736.804C624.03 736.804 625.471 737.037 627.735 737.483C634.157 738.75 647.209 741.729 652.765 745.93C660.28 751.611 679.039 815.682 667.533 840.445Z" fill="#D9935C"/>
<path d="M603.942 822.287C603.942 822.287 596.933 815.723 594.225 815.723C591.517 815.723 583.711 818.567 582.913 820.755C582.117 822.943 581.799 826.881 584.029 827.756C586.259 828.631 595.499 830.82 597.889 831.038C600.278 831.257 606.172 829.944 603.942 822.287Z" fill="#D9935C"/>
<path d="M667.533 840.445C667.533 840.445 658.243 841.352 642.358 839.721C643.235 835.405 644.049 826.977 639.598 819.157C643.373 818.606 646.803 817.973 649.484 817.254C652.778 816.371 636.425 774.925 628.175 750.552C627.515 742.672 627.167 737.398 627.167 737.398L627.735 737.483C634.157 738.751 647.209 741.729 652.765 745.931C660.28 751.611 679.039 815.681 667.533 840.445Z" fill="#739AF0"/>
<path d="M601.788 770.215C601.788 770.215 623.885 760.479 624.213 759.713C624.541 758.947 623.119 753.04 621.587 751.29C621.587 751.29 632.199 752.274 632.855 750.961C633.512 749.649 633.73 738.709 633.73 738.709C633.73 738.709 629.573 734.334 624.103 733.896C624.103 733.896 619.315 745.771 617.54 749.32C612.837 758.729 601.788 770.215 601.788 770.215Z" fill="#4A75CB"/>
<path d="M596.537 750.962C596.537 750.962 597.959 762.338 601.788 770.214C601.788 770.214 590.247 762.174 589.262 759.549C588.277 756.923 592.051 751.836 592.051 751.836C592.051 751.836 585.16 751.672 584.995 749.375C584.831 747.078 587.128 738.054 587.128 738.054C587.128 738.054 593.056 733.726 594.697 733.89L596.537 750.962Z" fill="#4A75CB"/>
<path d="M591.727 701.575C591.727 701.575 592.323 691.306 598.698 691.183C605.072 691.059 616.157 690.437 620.764 686.107C625.369 681.777 593.388 683.757 593.388 683.757C593.388 683.757 589.521 696.127 591.727 701.575Z" fill="#233862"/>
<path d="M617.325 687.634C617.325 687.634 625.633 691.017 626.801 696.298C626.801 696.298 629.536 676.825 617.325 687.634Z" fill="#233862"/>
<path d="M81.3586 1062.3L88.2426 1091.29L98.553 1091.23L98.9313 1062.3H81.3586Z" fill="#FFB27D"/>
<path d="M168.091 1063.54L187.677 1091.29L195.311 1081.49L183.523 1059.72L168.091 1063.54Z" fill="#FFB27D"/>
<path d="M97.6851 700.314C93.7956 699.033 89.5708 699.66 86.6814 700.422C87.2779 699.493 88.7017 698.911 88.7017 698.911C86.8337 699.007 83.1485 701.622 83.1485 701.622C55.9608 696.986 59.4829 734.932 61.7528 743.456C64.0184 751.979 55.5832 756.613 43.8271 766.057C21.3985 784.079 22.7009 801.896 22.7009 801.896C22.9184 801.971 23.1487 802.061 23.3952 802.167C24.2135 799.812 25.9745 795.342 28.0117 794.311C27.9688 794.519 26.5601 800.267 26.2453 803.462C34.7675 807.594 51.0984 817.26 62.5106 824.148C62.1202 822.431 61.6947 819.967 62.0646 818.546L64.6989 825.473C70.8087 829.173 75.0354 831.79 75.0354 831.79C72.9927 824.944 97.7528 781.655 112.319 767.249C115.193 760.409 114.502 749.487 114.443 748.628C115.437 757.198 114.947 762.215 114.196 765.136C125.774 749.187 107.993 703.705 97.6851 700.314Z" fill="#163560"/>
<path d="M108.443 770.123C108.529 770.162 100.174 774.499 93.89 772.78C87.9791 771.169 84.1162 763.504 84.1984 763.487C86.7015 762.99 87.4231 759.549 87.3699 744.767L88.5018 744.99L107.53 748.758C107.53 748.758 107.096 754.746 107.084 760.387C107.071 765.125 107.358 769.617 108.443 770.123Z" fill="#FFB27D"/>
<path d="M77.9199 710.627C77.9199 710.627 85.1477 698.976 98.5736 705.942C98.5736 705.942 91.6153 706.135 77.9199 710.627Z" fill="#5FABB7"/>
<path d="M107.53 748.759C107.53 748.759 107.096 754.747 107.084 760.389C96.4367 760.088 90.8073 750.375 88.5018 744.991L107.53 748.759Z" fill="#EF9E67"/>
<path d="M84.5857 745.658C84.5857 745.658 77.373 738.118 74.5708 730.992C72.5704 725.904 71.3146 705.805 91.5362 704.66C91.5362 704.66 97.3577 704.072 103.454 706.614C108.302 708.637 115.714 713.617 112.268 732.071L111.642 738.197L84.5857 745.658Z" fill="#163560"/>
<path d="M193.475 1075.15C193.475 1075.15 188.418 1076.02 184.266 1076.34C183.344 1076.41 182.468 1076.45 181.702 1076.45C179.703 1076.45 176.102 1075.7 173.682 1075.13L173.501 1075.09C172.439 1074.84 171.629 1074.64 171.328 1074.56L171.2 1074.52C171.2 1074.52 145.979 1046.45 131.835 1001.44C131.506 1000.39 131.156 999.333 130.79 998.263C123.045 975.688 106.996 947.355 98.5398 921.705C97.194 917.623 95.9841 913.775 94.9017 910.137C94.5524 908.972 94.2146 907.828 93.8937 906.701C87.6594 885.043 85.8567 870.825 84.1942 855.632L135.045 868.569C135.045 868.569 156.394 961.124 193.475 1075.15Z" fill="#A53D38"/>
<path d="M110.86 751.768C110.86 751.768 86.2464 757.153 83.1287 741.773C80.0109 726.393 74.7339 716.73 90.3172 712.641C105.901 708.552 110.153 713.801 112.442 718.681C114.732 723.561 117.182 749.97 110.86 751.768Z" fill="#FFB27D"/>
<path d="M101.49 709.998C101.49 709.998 98.3657 729.408 88.526 734.168C78.6875 738.929 73.6256 737.055 73.6256 737.055C73.6256 737.055 80.3113 729.127 79.7378 717.757C79.7378 717.757 94.6576 702.435 101.49 709.998Z" fill="#163560"/>
<path d="M100.108 711.8C100.108 711.8 105.97 714.811 107.992 718.481C110.012 722.15 112.191 730.102 114.487 729.355C114.487 729.355 117.108 716.061 109.984 710.275C102.43 704.141 100.108 711.8 100.108 711.8Z" fill="#163560"/>
<path d="M87.8969 1089.67C87.8969 1089.67 88.7266 1095.41 86.5837 1101.56C86.5837 1101.56 84.8958 1109.25 92.4687 1109.39C100.042 1109.53 101.899 1108.82 101.042 1104.1C100.185 1099.39 98.5536 1091.23 98.5536 1091.23L87.8969 1089.67Z" fill="#FFB27D"/>
<path d="M86.5836 1101.56C86.5836 1101.56 85.1816 1108.82 86.0385 1112.68C86.0385 1112.68 88.3241 1114.39 93.8265 1114.39C99.0419 1114.39 101.757 1112.68 101.757 1112.68C101.757 1112.68 101.918 1104.72 100.524 1101.36C100.524 1101.36 95.1567 1109.42 86.5836 1101.56Z" fill="#C45446"/>
<path d="M213.559 1104.87C213.559 1104.87 199.597 1089.38 195.311 1081.49L184.929 1086.81L208.136 1108.6L213.565 1107.89L213.559 1104.87Z" fill="#FFB27D"/>
<path d="M222.428 1113.96C222.428 1113.96 207.425 1113.96 204.853 1113.67C202.281 1113.39 200.211 1109.67 197.424 1104.1C196.284 1101.82 193.725 1100.56 191.102 1099.87V1112.78H187.136L183.386 1099.06C180.911 1094.52 183.189 1090.4 184.929 1086.81C186.952 1086.8 192.396 1088.19 202.71 1099.81C206.1 1103.63 209.843 1104.99 213.559 1104.87C213.611 1104.91 213.663 1104.93 213.714 1104.96C222.287 1108.81 222.428 1113.96 222.428 1113.96Z" fill="#C45446"/>
<path d="M184.265 1076.34C183.344 1076.41 182.467 1076.45 181.702 1076.45C179.702 1076.45 176.101 1075.7 173.682 1075.13L173.5 1075.09L171.327 1074.56L171.2 1074.52C171.2 1074.52 145.979 1046.45 131.834 1001.44C131.505 1000.39 131.156 999.333 130.789 998.262C123.045 975.687 106.996 947.354 98.5392 921.704C97.1933 917.622 95.9834 913.774 94.9011 910.136C94.5518 908.971 94.214 907.828 93.8931 906.7L102.885 899.873C102.885 899.873 129.888 943.596 138.246 984.743C145.176 1018.85 175.007 1063.07 184.265 1076.34Z" fill="#912F2F"/>
<path d="M103.828 988.581C103.98 1008.59 102.967 1054.59 100.362 1073.64C100.362 1073.64 97.8913 1075.83 91.7622 1075.85C85.4862 1075.88 82.6797 1073.56 82.6797 1073.56C76.1408 1040.45 71.4911 1013.05 68.1045 989.436C65.3263 970.062 62.857 953.45 60.9606 939.15C59.2776 926.479 58.0429 915.619 57.4501 906.257C57.3721 904.985 57.302 903.743 57.244 902.529C57.1703 900.924 57.1129 899.364 57.0833 897.854C57.0549 896.331 57.047 894.85 57.0591 893.414L57.2772 893.393L69.9102 892.163L109.827 888.27C109.161 923.331 103.741 976.95 103.828 988.581Z" fill="#A53D38"/>
<path d="M91.7621 1075.85C86.4229 1076.16 82.6797 1073.56 82.6797 1073.56C76.1408 1040.45 71.4911 1013.05 68.1044 989.436C65.3263 970.062 62.857 953.45 60.9606 939.15C59.2775 926.479 58.0429 915.618 57.45 906.257C57.3799 901.644 57.3303 897.224 57.2778 893.393C57.2198 889.508 57.1587 886.221 57.0511 883.933L69.9107 892.163L83.4417 900.817C83.4417 900.817 64.2481 918.278 68.9643 951.285C73.6757 984.292 85.1979 1071.18 91.7621 1075.85Z" fill="#912F2F"/>
<path d="M102.221 762.849C102.221 762.849 122.733 759.594 129.618 766.443C138.056 774.837 153.898 822.963 153.269 828.455C153.029 830.551 144.702 829.576 141.849 826.584C127.621 811.665 107.222 774.013 102.221 762.849Z" fill="#BC3F3F"/>
<path d="M142.065 897.228C126.752 901.207 55.2974 909.063 54.6798 891.167C54.5275 886.8 54.6798 881.529 55.0255 875.821C56.0915 858.142 58.9929 836.296 60.3835 824.275C61.021 818.765 58.9022 794.086 60.5273 780.638C60.7654 778.647 61.0869 776.898 61.5148 775.498C64.6005 765.35 78.4693 762.597 85.5883 762.354L107.07 761.622C107.07 761.622 129.254 786.403 132.34 794.017C135.426 801.63 136.435 827.691 138.834 840.312C141.233 852.933 149.514 895.294 142.065 897.228Z" fill="#BC3F3F"/>
<path d="M99.8645 836.744C99.8645 836.744 87.9222 873.422 55.0261 875.821C56.0921 858.142 58.9935 836.296 60.3841 824.275C61.0217 818.765 58.9029 794.086 60.5279 780.638C60.9558 780.728 61.3444 780.968 61.7916 781.054C98.0158 788.05 103.156 829.098 99.8645 836.744Z" fill="#A53D38"/>
<path d="M152.235 829.359C152.235 829.359 130.671 836.429 104.397 825.088C104.397 825.088 97.2398 824.412 93.6888 825.315C93.6888 825.315 94.4521 818.218 97.9252 816.286C101.398 814.355 116.333 818.532 120.8 817.918C130.56 816.575 147.563 815.525 152.235 829.359Z" fill="#EF9E67"/>
<path d="M133.016 812.844C133.016 812.844 135.04 795.32 128.181 784.758C128.181 784.758 130.603 783.935 132.341 786.678C134.079 789.422 146.19 815.454 140.424 817.371C134.657 819.288 133.016 812.844 133.016 812.844Z" fill="#A53D38"/>
<path d="M101.535 815.771C101.226 815.773 91.3506 817.062 89.6017 818.296C87.8521 819.531 89.3956 823.851 92.688 824.263C95.9798 824.675 101.535 815.771 101.535 815.771Z" fill="#EF9E67"/>
<path d="M74.5399 822.411C74.5399 822.411 102.667 821.383 128.181 816.445C128.181 816.445 132.845 816.486 132.296 820.56C131.748 824.634 88.0751 847.433 78.4729 843.043L74.5399 822.411Z" fill="#FFB27D"/>
<path d="M128.181 816.445C128.181 816.445 131.165 812.844 133.016 812.844C134.867 812.844 139.703 815.21 140.424 817.37C141.143 819.531 134.701 817.987 132.297 820.56C129.891 823.132 128.181 816.445 128.181 816.445Z" fill="#FFB27D"/>
<path d="M85.5908 762.356C85.5908 762.356 61.9547 762.412 58.498 770.904C52.1881 786.404 72.9862 837.83 78.473 843.042C80.8329 845.284 91.7622 841.75 91.7622 826.938C91.7622 819.256 91.2111 774.377 85.5908 762.356Z" fill="#BC3F3F"/>
<path d="M73.6164 892.347C73.6164 892.347 88.8268 897.601 86.6869 915.123C86.6869 915.123 85.2825 922.233 80.9041 919.079C76.5257 915.925 78.5774 916.507 72.3244 912.195C66.0707 907.884 61.9885 901.085 62.7004 895.684L73.6164 892.347Z" fill="#FFB27D"/>
<path d="M74.3115 893.473L65.3027 904.404C64.8833 904.915 64.2203 905.148 63.5713 905.027C55.1263 903.477 26.0604 884.743 16.5404 877.097C15.507 876.269 14.7074 875.571 14.1859 875.038C10.636 871.422 -1.60531 853.576 -10.2938 837.683C-15.2958 828.528 -19.1206 820.023 -19.4228 815.258C-20.5058 798.244 -11.5556 774.451 -11.5556 774.451C14.919 783.664 17.7037 804.803 17.7037 804.803L32.3811 859.427L73.9525 890.499C74.9007 891.207 75.0627 892.564 74.3115 893.473Z" fill="#739AF0"/>
<path d="M16.5398 877.096C15.5064 876.268 14.7069 875.57 14.1853 875.038C10.6355 871.422 -1.60588 853.576 -10.2944 837.682C-11.419 828.077 -10.6473 819.068 -6.68832 812.769C-6.68832 812.769 15.817 852.37 16.5398 877.096Z" fill="#4A82D3"/>
<path d="M1.28703 1034.47L-3.21403 1053.24L-5.99881 1064.86L-15.2717 1103.53C-15.2717 1103.53 -23.2083 1105.97 -31.4569 1103.53C-31.4569 1103.53 -34.5124 1090.73 -34.5994 1074.77C-34.6478 1066.43 -33.8808 1057.21 -31.4417 1048.51C-30.4519 1044.97 -29.1797 1041.52 -27.5764 1038.24C-14.4957 1011.52 1.28703 1034.47 1.28703 1034.47Z" fill="#FFB27D"/>
<path d="M8.97173 1114.82H-34.6036C-34.6036 1114.82 -35.2926 1108.23 -33.3732 1101.92C-33.091 1100.99 -32.7489 1100.06 -32.3386 1099.15C-32.3386 1099.15 -22.6101 1101.36 -14.2219 1099.15C-14.2219 1099.15 -6.33418 1105.87 -1.56601 1107.93C3.19794 1109.99 8.46711 1108.87 8.97173 1114.82Z" fill="#2B478B"/>
<path d="M10.3786 1052C9.3325 1055.87 5.81771 1058.56 1.80616 1058.56H-68.063C-73.3243 1058.56 -77.4682 1054.09 -77.0652 1048.84C-76.3315 1039.33 -73.7123 1023.78 -72.5683 1013.29C-72.0939 1008.93 -71.8757 1005.44 -72.1507 1003.62C-79.2033 956.951 -85.1233 901.985 -84.4036 891.478C-84.302 889.999 -84.2307 889.235 -84.2307 889.235C-84.2307 889.235 -79.1428 888.806 -71.4014 888.505C-48.9009 887.616 -3.98577 887.771 3.47652 902.485C11.0784 917.475 15.6689 1017 15.6689 1017C16.7803 1026.3 12.8558 1042.84 10.3786 1052Z" fill="#C65447"/>
<path d="M-32.0636 750.714C-32.0636 750.714 -61.1404 724.528 -34.8187 705.989C-34.8187 705.989 -26.9636 703.895 -22.9714 704.643C-22.9714 704.643 -8.66328 700.457 -0.290867 710.174C8.08154 719.893 11.719 726.92 4.54319 735.591C-2.63264 744.263 -32.0636 750.714 -32.0636 750.714Z" fill="#C65447"/>
<path d="M4.07121 900.465C4.34618 903.881 3.48019 904.502 3.48019 904.502C3.48019 904.502 -9.51839 909.215 -42.2061 907.585C-45.7438 907.408 -49.0743 907.228 -52.1866 907.043C-73.253 905.801 -84.5208 904.502 -84.5208 904.502C-84.5208 904.502 -101.776 864.676 -69.3587 815.606C-65.6934 810.059 -61.3918 804.391 -56.3595 798.652C-51.1109 792.666 -49.9512 784.654 -47.9642 777.04C-47.3961 774.857 -49.0399 774.375 -48.2204 772.317C-48.2204 772.317 -42.3082 770.646 -41.6985 770.646C-38.3414 773.605 -33.9116 779.354 -22.9194 780.491C-15.4868 781.266 -12.5781 777.078 -11.5212 774.567C-8.68745 775.591 -5.75161 777.359 -3.34698 778.515C16.5718 788.078 18.4005 806.623 18.4005 806.623C18.4005 806.623 0.0959244 866.812 -1.04082 874.328C-1.54665 877.67 2.65284 882.868 4.07121 900.465Z" fill="#739AF0"/>
<path d="M-4.47161 762.7C-4.47161 762.7 -30.3243 763.529 -30.5932 747.421C-30.8616 731.314 -34.3794 720.572 -17.8848 719.361C-1.38953 718.151 1.92102 724.243 3.31823 729.598C4.71605 734.952 2.24674 762.069 -4.47161 762.7Z" fill="#FFB27D"/>
<path d="M-8.24567 719.622C-8.24567 719.622 0.586023 730.553 4.59214 734.04C4.59214 734.04 14.4168 719.943 -8.24567 719.622Z" fill="#C65447"/>
<path d="M-8.24567 719.622C-8.24567 719.622 -0.310937 733.022 3.69511 736.509C3.69511 736.509 14.4164 719.943 -8.24567 719.622Z" fill="#C65447"/>
<path d="M65.5986 1100.94C65.5986 1100.94 67.7174 1105.07 72.4119 1106.09C75.3695 1106.74 77.9004 1108.28 79.4765 1110.44C80.8085 1112.26 79.52 1114.82 77.2623 1114.82H53.4335C51.4047 1114.82 49.8214 1113.07 50.0238 1111.06C50.2015 1109.29 50.387 1107.23 50.4674 1105.66C50.6445 1102.22 54.091 1099.45 54.091 1099.45L65.5986 1100.94Z" fill="#2C3A64"/>
<path d="M70.9954 1040.85C71.9907 1058.96 69.5196 1100.15 69.5196 1100.15C69.5196 1100.15 67.8583 1104.74 57.3677 1105.84C51.7474 1106.42 46.6879 1104.96 46.6879 1104.96C44.5716 1095.21 42.6135 1085.9 40.8114 1077.05C27.8588 1013.51 22.8072 974.258 22.8072 974.258L73.9342 962.374C73.9342 962.374 71.694 998.248 71.0352 1022.71C70.8286 1030.35 70.7784 1036.87 70.9954 1040.85Z" fill="#35488B"/>
<path d="M73.9342 962.374C73.9342 962.374 71.694 998.248 71.0353 1022.71L40.8108 1077.05C27.8582 1013.51 22.8066 974.258 22.8066 974.258L73.9342 962.374Z" fill="#2C3A64"/>
<path d="M22.531 880.213C22.531 880.213 2.74819 871.208 -12.2199 879.086C-27.188 886.964 -18.0372 951.985 3.36702 958.288C3.36702 958.288 43.4644 971.108 22.531 880.213Z" fill="#35488B"/>
<path d="M79.7593 977.532C79.7013 977.443 79.6367 977.359 79.5666 977.279C78.7483 976.035 76.9655 971.573 76.9655 971.573L73.7565 975.775C73.6743 975.867 72.4047 974.876 72.3364 974.983L72.6518 985.856L75.8433 985.102C75.9805 985.066 76.1134 985.02 76.2421 984.961C76.6301 984.781 76.9722 984.495 77.2151 984.109L79.7926 980.026C80.2887 979.24 80.2434 978.261 79.7593 977.532Z" fill="#E8945B"/>
<path d="M65.0112 870.109C65.0112 870.109 71.312 870.124 75.0746 878.981C82.8735 897.339 79.4862 936.962 79.0136 942.635C79.0136 942.635 81.692 953.9 77.7131 973.383L72.5255 976.456C72.5255 976.456 64.5374 899.473 65.5134 891.866C66.4888 884.26 65.0112 870.109 65.0112 870.109Z" fill="#E8945B"/>
<path d="M24.1174 1100.94C24.1174 1100.94 26.2362 1105.07 30.9306 1106.09C33.8882 1106.74 36.4192 1108.28 37.9947 1110.44C39.3266 1112.26 38.0382 1114.82 35.7804 1114.82H11.9516C9.92282 1114.82 8.33947 1113.07 8.54253 1111.06C8.71899 1109.29 8.90513 1107.23 8.98611 1105.66C9.16197 1102.22 12.6085 1099.45 12.6085 1099.45L24.1174 1100.94Z" fill="#2C3A64"/>
<path d="M40.6942 797.486C35.5985 797.486 29.1968 799.68 25.7618 803.017C22.1134 806.562 18.3176 806.744 15.6144 810.93C12.7964 815.294 11.0505 819.827 12.4665 825.967C14.013 832.673 13.6987 839.161 17.9115 844.083C19.9964 846.521 23.3928 846.796 25.7618 849.035C30.1106 853.147 35.054 854.448 40.6942 854.448C51.3256 854.448 57.9424 848.149 63.3844 840.302C67.7435 834.015 66.8799 829.776 67.9024 824.397C71.1217 807.469 57.0003 797.486 40.6942 797.486Z" fill="#35488B"/>
<path d="M55.6628 865.727L35.3404 876.115L31.2678 862.015C31.2678 862.015 33.8567 857.136 35.0279 849.143C35.5187 845.782 35.761 841.871 35.4486 837.538L52.0061 846.016C52.0061 846.016 51.612 847.547 51.3473 849.807C51.0651 852.249 50.9394 855.54 51.6332 858.667C52.2321 861.351 53.4329 863.914 55.6628 865.727Z" fill="#FFB27D"/>
<path d="M8.57941 967.891C8.57941 967.891 4.71651 1019.1 5.57708 1100.72C5.57708 1100.72 10.2389 1103.18 15.8592 1103.73C26.3564 1104.78 28.9127 1100.62 28.9127 1100.62C28.9127 1100.62 39.6475 1060.78 42.3313 1042.83C44.8048 1026.29 61.0517 966.574 61.0517 966.574L8.57941 967.891Z" fill="#35488B"/>
<path d="M69.0965 867.149C67.2902 866.303 61.6216 864.032 53.0932 862.629C53.1827 865.55 52.4025 868.276 47.2759 868.948C40.4549 869.837 34.3553 865.181 31.2672 862.016L31.2666 862.017L31.2672 862.015C31.2672 862.015 26.4579 862.531 20.8503 863.759C18.0444 864.375 15.0391 865.168 12.3371 866.17C9.06042 867.374 6.23033 868.878 4.7201 870.729C4.71889 870.73 4.7183 870.73 4.71649 870.73L4.71711 870.733C-0.531506 877.174 -9.16562 896.572 -9.16562 896.572C-9.16562 896.572 5.21022 901.901 8.83379 905.01L8.9166 905.702L11.1671 924.383L4.46692 961.592C4.40951 961.918 4.37747 962.244 4.37747 962.563C4.37747 965.05 6.07865 967.287 8.57696 967.889C8.57696 967.889 9.15288 967.985 10.2141 968.132C17.3174 969.129 46.1507 972.569 68.7569 966.431C73.8393 965.051 77.1892 960.199 76.7679 954.942L73.0815 908.694C75.0492 908.356 77.3197 907.999 79.1653 907.793C80.6997 907.627 81.9337 907.57 82.4456 907.723C82.4456 907.723 79.8911 871.608 69.0965 867.149Z" fill="#F99746"/>
<path d="M26.4368 935.783C26.1503 948.766 17.6431 964.021 10.2141 968.131C9.15288 967.984 8.57696 967.888 8.57696 967.888C6.07805 967.287 4.37747 965.05 4.37747 962.563C4.37747 962.243 4.40951 961.917 4.46692 961.591L11.1671 924.382L8.9166 905.702C9.02598 905.375 9.0828 905.203 9.0828 905.203C9.0828 905.203 26.942 912.848 26.4368 935.783Z" fill="#ED7D2B"/>
<path d="M79.1653 907.793C77.2731 908.004 73.0718 908.695 73.0718 908.695L70.9434 889.322C70.9434 889.322 78.0533 902.978 79.1653 907.793Z" fill="#ED7D2B"/>
<path d="M5.66348 954.946L7.40396 945.282C36.873 902.646 39.103 894.998 25.8506 875.855C22.0554 870.372 15.1515 866.946 12.3371 866.17C15.0391 865.168 18.0444 864.374 20.8503 863.759C23.6472 865.072 26.2198 866.365 28.2147 868.091C68.6602 903.107 5.66348 954.946 5.66348 954.946Z" fill="#35488B"/>
<path d="M23.0314 914.496C23.7632 914.441 26.942 912.848 26.942 912.848C26.942 912.848 28.5392 901.026 40.0765 900.229C40.0765 900.229 44.8822 900.258 43.8959 903.538C42.9102 906.819 42.8069 905.394 41.5203 910.055C40.2337 914.716 36.8814 918.261 33.3135 918.473L29.6573 919.463C29.6573 919.463 21.109 914.636 23.0314 914.496Z" fill="#FFB27D"/>
<path d="M26.942 912.848C26.942 912.848 7.57863 914.606 4.71712 915.877C4.71712 915.877 6.28896 911.627 9.08218 905.203C6.55728 902.721 -1.74017 899.028 -7.23415 897.331C-11.4252 908.021 -13.0352 918.604 -10.6843 928.805C-10.4365 929.883 -9.48952 930.654 -8.3842 930.706C-2.18738 930.995 18.3708 930.892 33.302 918.339L26.942 912.848Z" fill="#FFB27D"/>
<path d="M51.6332 858.667C42.2183 858.415 35.0273 849.143 35.0273 849.143L51.3473 849.807C51.0651 852.248 50.9394 855.54 51.6332 858.667Z" fill="#E8945B"/>
<path d="M52.5294 852.98C52.5294 852.98 31.7259 855.515 31.2817 840.859C30.8387 826.202 39.5097 816.708 45.2967 816.817C56.8383 817.033 58.7419 821.697 60.0805 826.553C61.4179 831.409 62.1068 851.946 52.5294 852.98Z" fill="#FFB27D"/>
<path d="M46.9659 844.532C46.9659 844.532 47.4186 846.359 51.9747 846.023C51.9747 846.023 55.8007 845.742 55.6593 843.728C55.6593 843.728 51.9305 842.339 46.9659 844.532Z" fill="white"/>
<path d="M50.4469 816.953C50.4469 816.953 32.668 816.942 36.7539 829.148C39.3284 836.841 30.7668 838.036 30.7668 838.036L26.6465 825.707L29.2276 816.1L50.4469 816.953Z" fill="#35488B"/>
<path d="M664.488 860.95C644.909 855.967 623.385 825.591 623.385 825.591L628.899 820.81C634.606 827.539 658.339 839.129 658.339 839.129C658.212 832.971 658.373 827.354 658.761 822.241C661.395 787.495 674.494 775.919 678.069 773.379C678.645 772.966 678.977 772.794 678.977 772.794C678.977 772.794 678.99 773.046 679.011 773.525C679.063 774.557 679.158 776.637 679.255 779.492C679.981 800.758 680.849 865.118 664.488 860.95Z" fill="#D9935C"/>
<path d="M628.899 820.809C628.816 819.988 628.264 808.051 625.893 805.779C623.521 803.506 618.839 800.41 617.494 800.661C616.148 800.911 611.578 808.512 613.736 813.748C615.893 818.983 623.385 825.591 623.385 825.591L628.899 820.809Z" fill="#D9935C"/>
<path d="M633.764 822.197L620.869 822.737C620.442 822.755 620.079 822.422 620.061 821.994L619.033 797.406C619.015 796.978 619.348 796.617 619.776 796.599L632.671 796.059C633.099 796.042 633.461 796.373 633.479 796.802L634.507 821.389C634.524 821.818 634.192 822.18 633.764 822.197Z" fill="#F1A34F"/>
<path d="M630.413 822.338L618.717 822.828C617.958 822.86 617.318 822.269 617.286 821.511L616.307 798.121C616.275 797.362 616.865 796.721 617.624 796.689L629.32 796.2C630.079 796.168 630.72 796.757 630.752 797.516L631.73 820.906C631.762 821.665 631.172 822.306 630.413 822.338Z" fill="#D86713"/>
<path d="M616.516 801.573C616.516 801.573 620.03 797.648 623.546 800.648C627.062 803.647 623.313 810.052 620.264 811.802C617.214 813.553 616.236 814.465 616.236 814.465L616.516 801.573Z" fill="#D9935C"/>
<path d="M707.124 1062.96C705.93 1067.71 704.618 1072.22 703.282 1076.42C702.994 1077.33 702.713 1078.21 702.425 1079.08C702.282 1079.51 702.138 1079.93 702 1080.36C701.717 1081.19 701.44 1082 701.163 1082.8C700.802 1083.84 700.44 1084.86 700.084 1085.84C699.821 1086.56 699.559 1087.28 699.302 1087.97C695.331 1098.62 692.004 1105.37 692.004 1105.37L684.093 1104.83C684.093 1104.83 687.064 1090.7 687.657 1070.46C687.677 1069.74 687.697 1069.01 687.712 1068.27C687.742 1066.7 687.761 1065.1 687.761 1063.47C687.761 1062.8 687.757 1062.12 687.752 1061.44C687.592 1044.01 685.435 1023.41 678.548 1003.74C672.949 987.75 668.89 972.789 665.954 959.268C656.478 915.624 658.706 886.95 658.706 886.95L703.212 892.158L705.287 892.4C705.476 912.841 706 940.594 706.461 962.293C706.54 966.06 706.614 969.644 706.689 972.976C706.996 986.908 707.228 996.432 707.228 996.432C715.787 1014.86 712.677 1040.87 707.124 1062.96Z" fill="#CB7D45"/>
<path d="M728.36 881.956C719.948 863.093 715.924 857.759 715.784 851.824C715.672 847.131 717.988 842.066 722.482 829.65C723.541 826.724 724.271 823.715 724.72 820.674C728.276 796.735 714.434 770.856 705.83 769.094C703.435 768.461 699.377 759.815 699.427 745.883L698.35 746.095L680.233 749.683C680.233 749.683 680.646 755.384 680.657 760.755C680.67 765.231 680.428 769.785 679.413 770.319C678.11 770.437 676.923 770.675 676.923 770.675C676.923 770.675 661.591 781.442 660.601 796.046C659.279 815.554 673.032 838.68 660.835 877.67C648.382 917.491 733.007 892.379 728.36 881.956Z" fill="#D9935C"/>
<path d="M700.221 744.122C700.221 744.122 705.534 735.727 706.809 728.549C707.719 723.425 705.109 704.43 686.021 707.166C686.021 707.166 680.477 707.711 675.266 711.231C671.122 714.03 665.14 720.073 671.828 736.649L673.565 742.249L700.221 744.122Z" fill="#233862"/>
<path d="M679.363 715.443C679.363 715.443 674.458 719.357 673.263 723.16C672.067 726.965 671.53 734.797 669.247 734.531C669.247 734.531 664.298 722.617 669.859 715.877C675.756 708.73 679.363 715.443 679.363 715.443Z" fill="#233862"/>
<path d="M679.993 819.25C678.978 844.038 675.27 868.583 664.478 867.004C651.25 865.073 647.804 852.726 647.102 843.548C646.666 837.835 647.294 833.35 647.294 833.35C647.294 833.35 653.805 833.32 654.859 832.349C659.859 827.731 658.374 782.432 660.849 777.729C663.325 773.026 679.384 770.007 679.384 770.007C679.384 770.007 681.004 794.749 679.993 819.25Z" fill="#EE9849"/>
<path d="M679.993 819.25C678.978 844.038 675.271 868.582 664.478 867.003C651.25 865.073 647.804 852.726 647.102 843.547C650.349 843.384 656.067 842.592 658.34 839.127C661.592 834.167 671.741 802.235 671.741 802.235C671.741 802.235 675.732 809.403 679.993 819.25Z" fill="#E58638"/>
<path d="M707.124 1062.96C705.93 1067.71 704.618 1072.22 703.282 1076.42C702.994 1077.33 702.713 1078.21 702.425 1079.08C702.282 1079.51 702.138 1079.93 702 1080.36C701.717 1081.19 701.44 1082 701.163 1082.8C700.802 1083.84 700.44 1084.86 700.084 1085.84C699.821 1086.56 699.559 1087.28 699.302 1087.97C695.331 1098.62 692.004 1105.37 692.004 1105.37L684.093 1104.83C684.093 1104.83 687.064 1090.7 687.657 1070.46C687.677 1069.74 687.697 1069.01 687.712 1068.27C687.741 1066.7 687.761 1065.1 687.761 1063.47C687.761 1062.8 687.757 1062.12 687.752 1061.44C687.592 1044.01 685.435 1023.41 678.548 1003.74C672.949 987.75 668.89 972.789 665.953 959.268C670.657 960.238 674.798 959.248 686.816 958.239C688.078 958.132 694.118 965.61 700.083 975.506C700.389 989.437 707.226 996.433 707.226 996.433C715.787 1014.86 712.677 1040.87 707.124 1062.96Z" fill="#233862"/>
<path d="M665.954 852.918C665.954 852.918 692.499 859.58 715.784 851.824C715.784 851.824 728.57 878.969 732.087 890.603C735.604 902.237 741.298 926.248 741.298 926.248C741.298 926.248 694.019 940.852 655.157 926.248C655.157 926.248 653.384 894.256 658.479 877.578C663.572 860.899 665.954 852.918 665.954 852.918Z" fill="#233862"/>
<path d="M762.175 865.355C762.175 871.583 755.822 875.41 749.006 877.271C742.451 879.063 735.471 879.038 733.287 877.578C729.52 875.053 723.381 846.984 721.589 838.438C721.268 836.889 721.084 835.983 721.084 835.983C721.084 835.983 716.187 847.666 716.034 848.756C715.966 849.246 715.906 849.92 715.861 850.513C715.812 851.231 715.782 851.825 715.782 851.825C715.782 851.825 689.212 865.236 665.954 852.919C665.954 852.919 656.499 798.274 660.603 788.868C662.643 784.195 673.282 774.552 677.538 770.393C678.495 769.458 678.4 767.606 678.029 765.913C677.722 764.482 679.009 763.225 680.425 763.59C683.164 764.304 688.09 764.18 693.367 762.448C695.995 761.591 698.708 760.333 701.278 758.58C702.025 758.07 703.04 758.541 703.154 759.437C703.554 762.694 704.54 768.645 706.337 768.645C708.813 768.63 725.704 770.704 726.941 772.793C727.372 773.521 731.763 783.457 737.308 796.621C737.308 796.621 737.313 796.631 737.318 796.656C747.724 821.349 762.175 857.389 762.175 865.355Z" fill="#EE9849"/>
<path d="M687.393 857.982C672.274 857.982 666.276 853.739 665.814 853.385L664.836 846.265C664.981 846.372 685.269 858.554 716.664 846.887L715.999 852.281C703.925 856.768 695.247 857.982 687.393 857.982Z" fill="#B64C41"/>
<path d="M696.558 1112.01H691.509C689.817 1111.74 688.568 1111.25 686.834 1111.02C684.199 1110.68 682.986 1111.76 682.744 1112.01C682.712 1112.04 682.698 1112.06 682.698 1112.06H661.246C660.706 1111.29 661.225 1109.5 661.733 1108.19C662.075 1107.29 662.82 1106.62 663.741 1106.35C666.016 1105.69 670.5 1105.11 674.606 1101.39C676.917 1099.3 685.765 1093.71 685.765 1093.71L685.811 1093.7C686.005 1093.7 686.931 1093.99 690.954 1097.39C693.034 1099.14 696.58 1094.91 696.58 1094.91C696.58 1094.91 697.246 1095.46 697.742 1096.49C698.142 1097.3 698.434 1098.41 698.204 1099.78C697.883 1101.71 698.917 1105.3 699.74 1107.73C700.24 1109.21 700.661 1110.25 700.661 1110.25C700.661 1110.25 700.902 1111.46 696.558 1112.01Z" fill="#233862"/>
<path d="M696.558 1112.01H691.509C689.817 1111.74 688.568 1111.25 686.834 1111.02C684.199 1110.68 682.987 1111.76 682.744 1112.01C682.712 1112.04 682.698 1112.06 682.698 1112.06H661.246C660.706 1111.29 661.225 1109.5 661.733 1108.19C662.384 1107.61 662.568 1110.7 662.928 1111.2C663.288 1111.69 680.427 1111.38 681.417 1110.66C682.407 1109.94 685.376 1108.68 689.515 1109.67C693.118 1110.53 698.427 1108.32 699.741 1107.73C700.24 1109.21 700.662 1110.25 700.662 1110.25C700.662 1110.25 700.902 1111.46 696.558 1112.01Z" fill="#466AA5"/>
<path d="M485.771 731.399C485.771 731.399 468.613 730.539 468.13 720.638C467.648 710.737 453.478 703.516 457.582 695.568C462.615 685.819 458.024 676.448 464.379 669.894C471.38 662.672 480.227 666.594 484.893 662.386C489.559 658.178 498.095 654.301 506.51 659.498C514.927 664.697 521.351 661.899 526.883 666.904C532.994 672.436 530.678 679.398 535.719 683.179C540.339 686.644 538.455 696.113 534.564 703.807C531.758 709.353 538.224 714.549 527.124 720.923C522.504 723.574 523.508 730.249 509.48 731.4C503.163 731.918 489.453 728.959 485.771 731.399Z" fill="#2C3A64"/>
<path d="M453.031 1112.58C453.031 1112.58 453.031 1105.63 454.021 1103.32C455.011 1101.01 458.642 1091.61 458.642 1091.61H472.834C472.834 1091.61 475.473 1100.19 475.639 1102.99C475.804 1105.8 475.639 1112.58 475.639 1112.58H453.031Z" fill="#233862"/>
<path d="M543.138 1112.58C543.138 1112.58 543.138 1105.63 542.148 1103.32C541.158 1101.01 537.527 1091.61 537.527 1091.61H523.336C523.336 1091.61 520.696 1100.19 520.531 1102.99C520.366 1105.8 520.531 1112.58 520.531 1112.58H543.138Z" fill="#233862"/>
<path d="M486.282 722.619C486.282 722.619 485.782 738.089 483.802 745.02L468.129 755.953L527.124 764.781L513.054 745.342C513.054 745.342 508.807 724.599 511.034 716.925C513.264 709.253 486.282 722.619 486.282 722.619Z" fill="#B56F40"/>
<path d="M486.197 724.755C486.197 724.75 490.861 735.985 499.649 735.738C508.437 735.49 510.437 725.553 510.437 725.553L486.197 724.755Z" fill="#99592E"/>
<path d="M498.642 731.398C492.274 731.286 480.555 722.808 480.555 712.309V695.926C480.555 692.091 483.229 688.955 486.496 688.955H510.787C514.055 688.955 516.727 692.091 516.727 695.926V711.382C516.728 722.391 505.944 731.527 498.642 731.398Z" fill="#B56F40"/>
<path d="M454.81 871.969C454.81 871.969 457.292 947.791 453.58 991.053C449.867 1034.32 453.607 1094.52 453.607 1094.52C453.607 1094.52 465.481 1101.07 478.352 1094.52C478.352 1094.52 492.468 1010.94 492.38 991.053C492.284 969.87 507.744 875.275 507.744 875.275L454.81 871.969Z" fill="#EE9849"/>
<path d="M542.626 1094.52C542.626 1094.52 530.753 1101.07 517.882 1094.52C517.882 1094.52 503.768 1010.94 503.858 991.051C503.896 982.105 501.164 960.06 497.991 937.584C493.649 906.835 488.491 875.275 488.491 875.275L543.476 871.84C543.476 871.84 538.942 947.793 542.655 991.051C546.368 1034.31 542.626 1094.52 542.626 1094.52Z" fill="#EE9849"/>
<path d="M533.11 749.01L533.112 749.043C525.973 747.247 519.261 746.064 513.055 745.342C507.579 752.615 503.649 754.303 498.644 756.283C490.589 755.169 483.802 745.247 483.802 745.02C475.026 745.919 469.109 747.529 466.702 748.277C466.225 748.334 440.487 751.734 404.057 825.888C404.057 825.888 406.018 832.715 415.572 844.622C422.37 853.087 433.018 864.127 449.533 877.103C449.533 877.103 451.093 873.771 452.514 868.379C452.514 868.379 442.697 849.275 436.786 836.338C433.914 830.041 431.964 825.21 432.524 824.744C433.587 823.86 445.464 813.55 454.232 805.931C454.162 807.835 454.143 809.567 454.188 811.071C454.663 827.635 455.331 843.735 453.197 861.567C450.389 884.999 455.143 884.583 455.143 884.583C455.143 884.583 461.539 885.835 470.461 887.018C478.53 888.098 488.664 889.121 497.991 889.121C519.378 889.121 542.818 884.582 542.818 884.582C549.566 884.667 540.927 842.596 539.666 817.283C539.373 811.404 539.1 806.04 538.847 801.136C546.908 808.137 564.76 823.649 566.077 824.744C566.637 825.209 564.686 830.041 561.814 836.338C555.904 849.274 546.087 868.378 546.087 868.378C547.507 873.77 549.067 877.102 549.067 877.102C565.582 864.126 576.231 853.087 583.028 844.621C592.583 832.715 594.544 825.888 594.544 825.888C557.769 751.035 533.11 749.01 533.11 749.01Z" fill="#B64C41"/>
<path d="M470.461 887.019C461.539 885.836 455.143 884.583 455.143 884.583C455.143 884.583 450.391 884.999 453.197 861.567C455.331 843.736 454.663 827.637 454.188 811.071C454.133 809.23 454.173 807.051 454.286 804.625C455.653 806.814 470.881 831.408 474.98 849.686C477.965 863.018 473.465 878.721 470.461 887.019Z" fill="#AA413E"/>
<path d="M503.857 991.051C503.896 982.105 501.164 960.06 497.99 937.584C501.282 924.158 509.303 911.236 509.303 911.236C519.451 939.703 503.857 991.051 503.857 991.051Z" fill="#E58638"/>
<path d="M450.556 869.322C450.556 869.322 459.466 861.071 463.097 865.691C466.728 870.312 467.387 877.573 464.582 877.078C461.776 876.583 456.001 873.943 455.176 875.263C454.351 876.582 450.655 879.106 449.533 877.102C448.41 875.097 450.556 869.322 450.556 869.322Z" fill="#B56F40"/>
<path d="M452.514 868.38C451.093 873.771 449.533 877.103 449.533 877.103C433.018 864.127 422.37 853.088 415.572 844.622C420.696 844.241 428.176 842.409 436.786 836.339C442.697 849.276 452.514 868.38 452.514 868.38Z" fill="#B56F40"/>
<path d="M548.043 869.322C548.043 869.322 539.132 861.071 535.502 865.691C531.871 870.312 531.21 877.573 534.016 877.078C536.822 876.583 542.597 873.943 543.422 875.263C544.247 876.582 547.944 879.106 549.066 877.102C550.188 875.097 548.043 869.322 548.043 869.322Z" fill="#B56F40"/>
<path d="M546.084 868.38C547.505 873.771 549.064 877.103 549.064 877.103C565.579 864.127 576.228 853.088 583.026 844.622C577.902 844.241 570.421 842.409 561.812 836.339C555.901 849.276 546.084 868.38 546.084 868.38Z" fill="#B56F40"/>
<path d="M566.076 824.745C564.754 823.646 546.779 808.027 538.758 801.062C538.758 801.062 546.764 795.061 551.714 803.809C556.665 812.556 566.076 824.745 566.076 824.745Z" fill="#AA413E"/>
<path d="M594.543 825.888C594.543 825.888 592.582 832.715 583.027 844.622C571.968 844.468 594.543 825.888 594.543 825.888Z" fill="#AA413E"/>
<path d="M480.556 702.569C480.556 702.569 484.975 689.079 499.456 691.182C513.936 693.286 515.189 696.38 516.728 699.97C518.268 703.559 521.238 686.85 521.238 686.85L504.159 681.776C504.159 681.776 483.489 684.127 482.004 687.593C480.519 691.058 480.519 691.058 480.519 691.058L480.556 702.569Z" fill="#2C3A64"/>
<path d="M489.782 712.632C487.284 712.632 482.282 712.077 481.407 707.733C481.142 706.419 481.39 705.25 482.124 704.352C482.933 703.365 484.266 702.799 485.782 702.799H493.468C494.93 702.799 495.951 703.218 496.502 704.047C497.431 705.443 496.718 707.535 496.369 708.37C495.173 711.229 493.527 712.563 491.187 712.568C491.087 712.579 490.555 712.632 489.782 712.632ZM485.782 703.304C484.418 703.304 483.226 703.802 482.515 704.673C481.879 705.448 481.669 706.473 481.902 707.633C482.351 709.862 484.025 711.286 486.878 711.866C489.051 712.308 491.121 712.067 491.143 712.066L491.172 712.064C493.289 712.064 494.792 710.828 495.902 708.175C496.15 707.583 496.896 705.552 496.08 704.327C495.629 703.648 494.749 703.304 493.467 703.304H485.782Z" fill="#2C3A64"/>
<path d="M507.508 712.632C506.737 712.632 506.204 712.579 506.105 712.568C503.766 712.563 502.12 711.229 500.923 708.371C500.574 707.535 499.862 705.443 500.79 704.048C501.341 703.219 502.363 702.799 503.824 702.799H511.509C513.026 702.799 514.359 703.366 515.168 704.353C515.901 705.25 516.149 706.419 515.884 707.734C515.009 712.076 510.007 712.632 507.508 712.632ZM503.824 703.304C502.542 703.304 501.663 703.648 501.211 704.327C500.396 705.552 501.142 707.583 501.39 708.175C502.5 710.828 504.002 712.064 506.119 712.064L506.149 712.066C506.17 712.068 508.24 712.308 510.413 711.866C513.267 711.286 514.941 709.862 515.39 707.634C515.624 706.472 515.412 705.448 514.777 704.673C514.065 703.803 512.874 703.304 511.51 703.304H503.824Z" fill="#2C3A64"/>
<path d="M495.893 706.352C495.779 706.352 495.67 706.286 495.618 706.175C495.549 706.023 495.616 705.843 495.767 705.774C495.894 705.716 498.907 704.368 501.579 705.782C501.726 705.86 501.782 706.044 501.704 706.192C501.626 706.339 501.442 706.395 501.295 706.317C498.883 705.04 496.047 706.312 496.019 706.325C495.978 706.343 495.935 706.352 495.893 706.352Z" fill="#2C3A64"/>
<path d="M447.092 881.14L440.06 882.442C440.06 882.442 420.815 852.773 420.262 843.727C419.729 835.088 402.387 797.282 422.689 773.678C423.605 772.608 424.599 771.568 425.68 770.563C425.715 770.523 425.755 770.487 425.795 770.452C425.795 770.452 425.83 770.507 425.895 770.618C426.308 771.306 427.921 774.221 429.811 780.663C432.77 790.733 436.429 809.428 437.294 841.716C437.294 841.717 442.016 869.361 447.092 881.14Z" fill="#F4A671"/>
<path d="M447.092 881.14C447.092 881.14 454.628 889.642 454.859 893.089C455.09 896.536 452.108 900.876 448.759 901.616C445.409 902.358 447.501 897.041 446.999 894.906C446.496 892.771 444.307 889.531 444.439 890.496C444.573 891.462 445.911 895.262 445.497 895.868C445.083 896.476 444.002 896.574 443.594 894.545C443.184 892.515 439.809 890.149 440.472 887.972C441.134 885.796 440.591 884.119 439.678 881.201C438.763 878.282 437.234 874.779 437.234 874.779L442.665 873.62L447.092 881.14Z" fill="#F4A671"/>
<path d="M396.224 727.583C396.224 727.583 396.058 731.171 398.209 731.874C400.361 732.575 395.992 740.32 396.334 745.549C396.677 750.779 398.991 752.878 398.991 752.878C398.991 752.878 397.88 750.001 398.501 748.223C398.501 748.223 398.402 751.923 401.104 753.79C403.806 755.655 403.079 757.269 403.079 757.269C403.079 757.269 409.185 755.441 409.357 750.861C409.357 750.861 409.619 752.931 409.408 753.789C409.408 753.789 414.681 749.83 414.933 745.268C415.185 740.707 410.782 736.857 408.777 736.787C406.772 736.718 402.298 732.781 402.419 731.293C402.54 729.805 396.224 727.583 396.224 727.583Z" fill="#2C3A64"/>
<path d="M413.1 701.947C409.547 696.552 395.439 699.57 381.59 708.691C367.742 717.811 359.396 729.578 362.949 734.973C366.502 740.369 380.61 737.349 394.458 728.229C408.306 719.108 416.653 707.341 413.1 701.947Z" fill="#E2AF64"/>
<path d="M443.556 1100.04L436.089 1102.82C436.089 1102.82 403.653 1057.84 399.659 1018.25C398.946 1011.19 399.184 1004.34 400.727 998.019C400.727 998.019 400.41 996.208 399.855 993.007C399.599 991.513 399.282 989.715 398.922 987.655C397.868 981.612 396.417 973.345 394.758 963.932C390.941 942.269 385.997 914.578 382.156 894.219L384.168 893.573L405.94 886.549L410.439 872.259L426.651 867.991C426.651 867.991 430.271 875.075 433.509 908.542C434.107 912.931 434.65 917.772 435.058 923.021C436.32 939.045 436.411 958.92 433.515 981.643C432.772 987.459 431.832 993.465 430.668 999.635C429.814 1004.16 429.686 1010.32 430.046 1017.4C431.68 1049.76 443.556 1100.04 443.556 1100.04Z" fill="#2B478B"/>
<path d="M435.058 923.021L399.855 993.007C399.598 991.513 399.281 989.715 398.921 987.655C397.867 981.612 396.416 973.345 394.758 963.932C390.941 942.269 385.996 914.578 382.155 894.219L384.167 893.573L405.939 886.549L410.438 872.259L429.803 866.499C429.803 866.499 430.271 875.075 433.509 908.542C434.106 912.931 434.65 917.772 435.058 923.021Z" fill="#233862"/>
<path d="M405.302 702.56L380.408 740.329C380.408 740.329 377.562 734.753 374.401 736.754C369.469 739.869 358.875 729.204 361.084 714.144C361.23 713.159 361.402 712.224 361.595 711.336C366.562 704.18 372.078 696.213 376.036 690.61C387.468 683.706 405.302 702.56 405.302 702.56Z" fill="#2C3A64"/>
<path d="M416.242 778.858C412.759 782.05 408.235 784.907 402.371 787.127C380.388 795.458 369.081 777.459 364.024 764.736C366.879 762.543 369.737 761.757 371.392 761.327C373.006 760.911 374.714 760.547 376.133 760.283C378.416 757.984 381.127 749.479 380.28 736.961L381.386 737.101L399.939 739.564C399.939 739.564 399.892 745.362 400.222 750.79C400.484 755.038 400.982 759.064 401.912 759.939C403.349 760.052 404.214 760.135 404.214 760.135C404.214 760.135 404.215 760.141 404.225 760.151C404.518 760.513 410.868 768.341 416.242 778.858Z" fill="#FFB27D"/>
<path d="M399.94 739.568C399.94 739.568 399.89 745.361 400.224 750.794C389.952 751.158 383.937 742.149 381.386 737.106L399.94 739.568Z" fill="#ED985F"/>
<path d="M403.692 744.494C403.692 744.494 379.458 746.438 378.479 731.328C377.501 716.218 373.714 706.292 389.145 704.412C404.576 702.532 407.959 708.102 409.512 713.066C411.066 718.031 409.971 743.599 403.692 744.494Z" fill="#FFB27D"/>
<path d="M408.257 704.711C404.217 700.404 401.447 701.581 399.946 703.049C386.223 696.604 378.365 707.925 378.365 707.925C377.431 718.871 370.008 725.579 370.008 725.579C370.008 725.579 374.604 728.029 384.631 724.759C387.692 723.76 390.333 721.37 392.525 718.535C388.839 725.713 383.542 731.052 383.542 731.052C395.36 724.649 399.171 707.403 399.544 705.581C401.11 706.817 404.214 709.52 405.283 712.294C406.737 716.066 407.786 723.953 410.077 723.537C410.077 723.537 414.314 711.169 408.257 704.711Z" fill="#2C3A64"/>
<path d="M466.927 1112.58H429.315C429.315 1112.58 427.909 1106.58 430.378 1102.5C432.564 1098.89 431.726 1096.83 430.108 1093.84C431.812 1094.54 434.016 1095.17 436.443 1095.03C438.317 1094.93 440.298 1094.07 442.036 1093.07C443.655 1094.91 450.586 1102.77 452.752 1104.32C455.21 1106.09 466.17 1105.46 466.927 1112.58Z" fill="#233862"/>
<path d="M360.566 721.58C360.566 721.58 349.297 699.147 365.045 690.278C380.795 681.411 392.322 684.893 400.987 695.738L360.566 721.58Z" fill="#EDBD77"/>
<path d="M432.29 782.805C429.274 767.716 419.93 763.395 419.93 763.395C419.93 763.395 418.376 761.041 409.696 760.671C408.344 760.615 406.867 760.335 405.224 760.204C404.895 760.181 404.559 760.156 404.215 760.134C404.215 760.134 404.217 760.139 404.226 760.151C404.556 760.658 413.313 774.122 412.827 777.741C412.332 781.426 380.453 780.165 378.143 778.305C376.291 776.805 373.074 766.807 371.874 762.896C371.57 761.922 371.391 761.325 371.391 761.325C371.391 761.325 360.259 763.267 355.025 767.603C355.025 767.603 359.031 771.999 361.707 777.402C361.959 777.919 362.202 778.432 362.427 778.956C362.905 780.065 363.302 781.199 363.594 782.335C363.977 783.837 363.63 785.386 362.82 787.052C362.091 788.575 360.96 790.211 359.657 791.985C358.799 793.137 357.875 794.359 356.934 795.665C357.596 797.865 358.459 800.5 359.416 803.482C361.385 809.616 363.728 817.193 365.401 825.35C366.029 828.425 365.947 831.588 365.191 834.602C364.892 835.804 364.486 836.983 363.978 838.124C363.184 839.905 362.987 842.36 362.095 844.663C358.453 854.098 354.248 866.408 358.461 872.835C361.271 881.054 426.362 861.096 421.981 852.479C421.981 852.479 424.577 807.27 426.367 793.267C426.426 792.752 426.474 792.258 426.5 791.759C426.541 790.972 426.538 790.197 426.497 789.436C432.139 786.865 432.29 782.805 432.29 782.805Z" fill="#F99746"/>
<path d="M424.013 693.275C420.771 688.078 409.432 688.916 395.743 694.522C390.395 696.711 384.694 699.629 378.972 703.197C371.86 707.633 365.662 712.49 360.802 717.24C351.741 726.101 347.318 734.587 350.252 739.292C353.513 744.515 364.956 743.638 378.748 737.956C377.627 736.735 376.055 735.706 374.401 736.753C372.706 737.824 370.335 737.265 368.051 735.453C366.366 735.177 365.116 734.498 364.431 733.403C363.918 732.584 363.761 731.591 363.914 730.462C364.616 725.219 372.049 717.075 382.721 710.417C390.92 705.303 399.07 702.294 404.683 701.935C407.946 701.721 410.352 702.407 411.408 704.101C412.32 705.563 412.118 707.599 410.998 709.953C411.613 712.42 411.606 715.037 411.366 717.307C421.83 707.752 427.17 698.331 424.013 693.275Z" fill="#FFCF83"/>
<path d="M387.377 839.477C378.003 842.481 368.874 843.771 361.631 844.294C362.524 841.992 363.184 839.905 363.979 838.123C364.486 836.981 364.893 835.803 365.191 834.602C365.948 831.588 366.03 828.424 365.402 825.349C363.728 817.191 359.286 803.274 357.317 797.139C362.576 785.409 368.011 791.807 368.011 791.807C368.011 791.807 383.907 798.936 390.674 812.078C397.442 825.219 395.467 836.885 387.377 839.477Z" fill="#ED7D2B"/>
<path d="M367.088 762.224C367.088 762.224 382.225 771.897 386.096 792.293L390.674 790.839C390.674 790.839 388.902 776.28 371.392 761.328L367.088 762.224Z" fill="#2B478B"/>
<path d="M420.553 792.81L415.759 793.125C416.719 775.441 407.844 763.37 405.221 760.205C406.866 760.337 408.356 760.496 409.693 760.672C422.248 778.837 420.553 792.81 420.553 792.81Z" fill="#2B478B"/>
<path d="M426.501 869.456L429.901 867.99L426.561 817.318C426.561 817.318 423.314 794.277 423.266 790.25C423.217 786.223 419.966 784.26 419.966 784.26C419.966 784.26 396.103 785.519 389.377 785.897C382.65 786.275 383.326 790.103 383.326 790.103C383.326 790.103 386.26 802.346 386.556 803.606C391.084 822.847 365.19 834.603 365.19 834.603C365.19 834.603 360.99 845.473 357.731 855.884C352.144 873.735 357.133 899.345 357.133 899.345C357.981 912.949 359.53 970.752 361.147 987.857C361.732 994.057 362.243 998.468 362.453 1000.23C362.457 1000.24 362.457 1000.24 362.457 1000.25C362.52 1000.79 362.333 1001.29 362.06 1001.76C359.679 1005.8 357.708 1010.01 356.091 1014.31C340.219 1056.61 358.536 1108.7 358.536 1108.7L363.288 1106.78C363.288 1106.78 373.712 1048.81 382.182 1023.21C383.619 1018.86 384.997 1015.45 386.26 1013.41C389.942 1007.47 393.36 997.756 396.461 986.206C402.324 964.37 407.043 935.963 410.183 914.037C410.616 914.057 415.131 883.305 426.446 869.749C426.547 869.627 426.56 869.531 426.501 869.456Z" fill="#2B478B"/>
<path d="M385.908 790.514C385.572 789.455 386.157 788.326 387.215 787.989C388.274 787.653 389.403 788.238 389.74 789.297C390.076 790.355 389.491 791.485 388.433 791.821C387.373 792.157 386.244 791.572 385.908 790.514Z" fill="#ED7D2B"/>
<path d="M386.252 790.405C385.916 789.347 386.501 788.216 387.559 787.88C388.618 787.544 389.748 788.129 390.084 789.188C390.42 790.246 389.835 791.376 388.776 791.712C387.718 792.047 386.588 791.463 386.252 790.405Z" fill="#F99746"/>
<path d="M386.922 789.794C386.922 789.632 387.053 789.502 387.214 789.502C387.376 789.502 387.506 789.634 387.505 789.795C387.505 789.956 387.374 790.087 387.213 790.087C387.052 790.086 386.922 789.955 386.922 789.794Z" fill="#2B478B"/>
<path d="M388.829 789.797C388.829 789.635 388.961 789.506 389.122 789.506C389.282 789.506 389.413 789.637 389.413 789.798C389.413 789.96 389.281 790.089 389.12 790.089C388.96 790.089 388.829 789.959 388.829 789.797Z" fill="#2B478B"/>
<path d="M415.496 787.96C415.159 786.902 415.745 785.772 416.803 785.436C417.861 785.099 418.991 785.685 419.327 786.743C419.664 787.801 419.078 788.931 418.02 789.268C416.962 789.604 415.832 789.019 415.496 787.96Z" fill="#ED7D2B"/>
<path d="M415.84 787.85C415.504 786.793 416.089 785.662 417.148 785.327C418.206 784.99 419.336 785.576 419.672 786.633C420.008 787.692 419.423 788.822 418.365 789.158C417.307 789.494 416.176 788.909 415.84 787.85Z" fill="#F99746"/>
<path d="M416.51 787.24C416.511 787.079 416.642 786.948 416.802 786.949C416.964 786.949 417.094 787.08 417.094 787.241C417.094 787.403 416.963 787.533 416.801 787.533C416.641 787.533 416.51 787.401 416.51 787.24Z" fill="#2B478B"/>
<path d="M418.418 787.243C418.418 787.082 418.549 786.952 418.71 786.952C418.872 786.952 419.002 787.084 419.001 787.244C419.001 787.405 418.87 787.536 418.709 787.536C418.548 787.536 418.417 787.405 418.418 787.243Z" fill="#2B478B"/>
<path d="M363.913 730.461C363.913 730.461 363.747 734.049 365.899 734.751C368.051 735.453 363.682 743.198 364.024 748.427C364.366 753.656 366.68 755.756 366.68 755.756C366.68 755.756 365.57 752.879 366.19 751.101C366.19 751.101 366.091 754.8 368.793 756.667C371.495 758.533 370.769 760.148 370.769 760.148C370.769 760.148 376.876 758.319 377.047 753.738C377.047 753.738 377.309 755.808 377.098 756.666C377.098 756.666 382.371 752.707 382.622 748.145C382.874 743.583 378.472 739.734 376.466 739.664C374.462 739.595 369.987 735.658 370.108 734.17C370.229 732.682 363.913 730.461 363.913 730.461Z" fill="#2C3A64"/>
<path d="M363.94 850.654C363.94 850.654 371.193 855.231 372.256 855.191C374.745 855.098 379.657 849.662 383.748 852.175C387.837 854.689 391.844 858.877 390.427 860.553C389.01 862.228 384.207 860.251 381.904 860.586C379.599 860.922 373.92 863.745 369.911 862.416C366.057 861.139 357.731 855.884 357.731 855.884L363.94 850.654Z" fill="#FFB27D"/>
<path d="M355.026 767.602C355.026 767.602 328.025 799.491 319.09 817.456C319.09 817.456 329.833 840.847 364.66 859.849C364.66 859.849 366.207 859.511 368.571 857.823C372.256 855.191 368.173 853.264 367.366 852.742C358.53 847.017 343.092 822.364 342.645 820.225C342.198 818.086 361.995 798.9 368.011 791.806C374.027 784.713 364.379 763.948 355.026 767.602Z" fill="#FFB27D"/>
<path d="M396.221 736.049C396.221 736.049 399.832 738.238 402.402 737.983C404.948 737.731 406.334 734.661 406.334 734.661C406.334 734.661 401.396 733.933 396.221 736.049Z" fill="#FFF2E9"/>
<path d="M355.026 767.602L342.897 779.451C342.897 779.451 345.667 796.948 364.024 799.232C364.024 799.232 379.091 787.17 370.088 774.605C361.086 762.039 355.026 767.602 355.026 767.602Z" fill="#F99746"/>
<path d="M372.256 855.191C372.256 855.191 372.666 853.429 374.224 852.735C375.783 852.041 377.233 850.528 377.36 850.969C377.485 851.41 377.583 852.147 376.777 853.04C375.971 853.934 374.598 855.43 372.256 855.191Z" fill="#FFB27D"/>
<path d="M386.169 1112.58H348.557C348.557 1112.58 347.654 1106.85 349.62 1102.5C351.502 1098.32 354.45 1096.43 353.744 1091.38C356.134 1093.84 360.03 1096.6 365.467 1095.86C366.134 1096.94 369.767 1102.72 371.993 1104.32C374.451 1106.09 385.411 1105.46 386.169 1112.58Z" fill="#233862"/>
<path d="M1172.88 1117.25H-368.969C-370.086 1117.25 -371 1116.33 -371 1115.22V1113.76C-371 1112.64 -370.086 1111.73 -368.969 1111.73H1172.88C1174 1111.73 1174.91 1112.64 1174.91 1113.76V1115.22C1174.91 1116.33 1173.99 1117.25 1172.88 1117.25Z" fill="#2E3552"/>
</g>
</g>
</svg>
